<svg width="1920" height="1080" viewBox="0 0 1920 1080" fill="none" xmlns="http://www.w3.org/2000/svg">
<g clip-path="url(#clip0_333_4392)">
<mask id="mask0_333_4392" style="mask-type:alpha" maskUnits="userSpaceOnUse" x="-274" y="-153" width="2242" height="1440">
<path d="M814.658 388.828C814.658 536.088 717.293 655.466 597.188 655.466C477.082 655.466 -273.324 138.968 -273.324 -8.29154C-273.324 -155.551 804.863 47.1791 924.969 47.1791C1045.07 47.1791 814.658 241.568 814.658 388.828Z" fill="url(#paint0_linear_333_4392)"/>
<path d="M899.124 1019.85C899.124 1167.11 801.759 1286.49 681.654 1286.49C561.548 1286.49 -107.543 1252.16 -107.543 1104.9C-107.543 957.645 -58.0847 608.82 62.0209 608.82C182.126 608.82 899.124 872.593 899.124 1019.85Z" fill="url(#paint1_radial_333_4392)"/>
<path d="M1145.82 389.232C1469.88 681.921 1320.19 534.832 1598.53 527.422C1642.19 535.834 1716.32 536.233 1663.51 470.542C1597.49 388.427 1618.77 330.429 1536.27 240.965C1453.76 151.501 1403.52 60.6075 1278.96 -81.6826C1154.41 -223.973 1144.83 -106.679 1004.41 -117.798C863.986 -128.917 928.032 -111.26 734.288 95.1975C540.544 301.655 821.753 96.5434 1145.82 389.232Z" fill="#D9D9D9"/>
<path d="M839.873 849.613C406.193 900.672 615.469 884.913 437.71 1099.23C402.621 1126.55 353.496 1182.06 437.71 1185.59C542.978 1190 572.605 1244.21 694.262 1241.06C815.919 1237.91 917.406 1259.97 1106.51 1259.97C1295.61 1259.97 1213.67 1175.5 1314.53 1077.17C1415.38 978.835 1359.91 1015.4 1332.18 733.629C1304.44 451.863 1273.55 798.555 839.873 849.613Z" fill="#D9D9D9"/>
</mask>
<g mask="url(#mask0_333_4392)">
<g opacity="0.5">
<line x1="-204.924" y1="609.303" x2="2232.08" y2="609.303" stroke="#64A9A0" stroke-opacity="0.25" stroke-width="1.2607"/>
<line x1="-204.924" y1="932.303" x2="2232.08" y2="932.303" stroke="#64A9A0" stroke-opacity="0.25" stroke-width="1.2607"/>
<line x1="-204.924" y1="287.303" x2="2232.08" y2="287.303" stroke="#64A9A0" stroke-opacity="0.25" stroke-width="1.2607"/>
<line x1="-204.924" y1="448.303" x2="2232.08" y2="448.303" stroke="#64A9A0" stroke-opacity="0.25" stroke-width="1.2607"/>
<line x1="-204.924" y1="771.303" x2="2232.08" y2="771.303" stroke="#64A9A0" stroke-opacity="0.25" stroke-width="1.2607"/>
<line x1="-204.924" y1="125.304" x2="2232.08" y2="125.304" stroke="#64A9A0" stroke-opacity="0.25" stroke-width="1.2607"/>
<line x1="-204.924" y1="529.303" x2="2232.08" y2="529.303" stroke="#64A9A0" stroke-opacity="0.25" stroke-width="1.2607"/>
<line x1="-204.924" y1="851.303" x2="2232.08" y2="851.303" stroke="#64A9A0" stroke-opacity="0.25" stroke-width="1.2607"/>
<line x1="-204.924" y1="206.303" x2="2232.08" y2="206.303" stroke="#64A9A0" stroke-opacity="0.25" stroke-width="1.2607"/>
<line x1="-204.924" y1="1013.3" x2="2232.08" y2="1013.3" stroke="#64A9A0" stroke-opacity="0.25" stroke-width="1.2607"/>
<line x1="-204.924" y1="367.303" x2="2232.08" y2="367.303" stroke="#64A9A0" stroke-opacity="0.25" stroke-width="1.2607"/>
<line x1="-204.924" y1="690.303" x2="2232.08" y2="690.303" stroke="#64A9A0" stroke-opacity="0.25" stroke-width="1.2607"/>
<line x1="-204.924" y1="44.3035" x2="2232.08" y2="44.3035" stroke="#64A9A0" stroke-opacity="0.25" stroke-width="1.2607"/>
</g>
<g opacity="0.5">
<line x1="38.1343" y1="-163" x2="38.1342" y2="1349" stroke="#64A9A0" stroke-opacity="0.25" stroke-width="1.2607"/>
<line x1="683.134" y1="-163" x2="683.134" y2="1349" stroke="#64A9A0" stroke-opacity="0.25" stroke-width="1.2607"/>
<line x1="361.134" y1="-163" x2="361.134" y2="1349" stroke="#64A9A0" stroke-opacity="0.25" stroke-width="1.2607"/>
<line x1="1006.13" y1="-163" x2="1006.13" y2="1349" stroke="#64A9A0" stroke-opacity="0.25" stroke-width="1.2607"/>
<line x1="1329.13" y1="-163" x2="1329.13" y2="1349" stroke="#64A9A0" stroke-opacity="0.25" stroke-width="1.2607"/>
<line x1="199.134" y1="-163" x2="199.134" y2="1349" stroke="#64A9A0" stroke-opacity="0.25" stroke-width="1.2607"/>
<line x1="845.134" y1="-163" x2="845.134" y2="1349" stroke="#64A9A0" stroke-opacity="0.25" stroke-width="1.2607"/>
<line x1="522.134" y1="-163" x2="522.134" y2="1349" stroke="#64A9A0" stroke-opacity="0.25" stroke-width="1.2607"/>
<line x1="1168.13" y1="-163" x2="1168.13" y2="1349" stroke="#64A9A0" stroke-opacity="0.25" stroke-width="1.2607"/>
<line x1="1490.13" y1="-163" x2="1490.13" y2="1349" stroke="#64A9A0" stroke-opacity="0.25" stroke-width="1.2607"/>
<line x1="119.134" y1="-163" x2="119.134" y2="1349" stroke="#64A9A0" stroke-opacity="0.25" stroke-width="1.2607"/>
<line x1="764.134" y1="-163" x2="764.134" y2="1349" stroke="#64A9A0" stroke-opacity="0.25" stroke-width="1.2607"/>
<line x1="441.134" y1="-163" x2="441.134" y2="1349" stroke="#64A9A0" stroke-opacity="0.25" stroke-width="1.2607"/>
<line x1="1087.13" y1="-163" x2="1087.13" y2="1349" stroke="#64A9A0" stroke-opacity="0.25" stroke-width="1.2607"/>
<line x1="1410.13" y1="-163" x2="1410.13" y2="1349" stroke="#64A9A0" stroke-opacity="0.25" stroke-width="1.2607"/>
<line x1="280.134" y1="-163" x2="280.134" y2="1349" stroke="#64A9A0" stroke-opacity="0.25" stroke-width="1.2607"/>
<line x1="926.134" y1="-163" x2="926.134" y2="1349" stroke="#64A9A0" stroke-opacity="0.25" stroke-width="1.2607"/>
<line x1="603.134" y1="-163" x2="603.134" y2="1349" stroke="#64A9A0" stroke-opacity="0.25" stroke-width="1.2607"/>
<line x1="1248.13" y1="-163" x2="1248.13" y2="1349" stroke="#64A9A0" stroke-opacity="0.25" stroke-width="1.2607"/>
<line x1="1570.13" y1="-143" x2="1570.13" y2="1369" stroke="#64A9A0" stroke-opacity="0.25" stroke-width="1.2607"/>
<line x1="1650.13" y1="-143" x2="1650.13" y2="1369" stroke="#64A9A0" stroke-opacity="0.25" stroke-width="1.2607"/>
<line x1="1730.13" y1="-143" x2="1730.13" y2="1369" stroke="#64A9A0" stroke-opacity="0.25" stroke-width="1.2607"/>
<line x1="1810.13" y1="-143" x2="1810.13" y2="1369" stroke="#64A9A0" stroke-opacity="0.25" stroke-width="1.2607"/>
<line x1="1890.13" y1="-143" x2="1890.13" y2="1369" stroke="#64A9A0" stroke-opacity="0.25" stroke-width="1.2607"/>
</g>
</g>
</g>
<defs>
<linearGradient id="paint0_linear_333_4392" x1="246.083" y1="65.4594" x2="700.565" y2="307.513" gradientUnits="userSpaceOnUse">
<stop stop-color="white"/>
<stop offset="1" stop-color="white" stop-opacity="0"/>
</linearGradient>
<radialGradient id="paint1_radial_333_4392" cx="0" cy="0" r="1" gradientUnits="userSpaceOnUse" gradientTransform="translate(211.414 1026.11) rotate(-29.3932) scale(777.019 1335.47)">
<stop stop-color="white"/>
<stop offset="1" stop-color="white" stop-opacity="0"/>
</radialGradient>
<clipPath id="clip0_333_4392">
<rect width="1920" height="1080" fill="white"/>
</clipPath>
</defs>
</svg>
