<svg width="24" height="24" viewBox="0 0 24 24" fill="none" xmlns="http://www.w3.org/2000/svg">
<mask id="mask0_594_2768" style="mask-type:alpha" maskUnits="userSpaceOnUse" x="0" y="0" width="24" height="24">
<rect width="24" height="24" fill="#D9D9D9"/>
</mask>
<g mask="url(#mask0_594_2768)">
<path opacity="0.5" d="M10 16C10 14.1144 10 13.1716 9.41421 12.5858C8.82843 12 7.88562 12 6 12C4.11438 12 3.17157 12 2.58579 12.5858C2 13.1716 2 14.1144 2 16V18C2 19.8856 2 20.8284 2.58579 21.4142C3.17157 22 4.11438 22 6 22C7.88562 22 8.82843 22 9.41421 21.4142C10 20.8284 10 19.8856 10 18V16Z" stroke="#64A9A0" stroke-width="1.5"/>
<path d="M21.5 9C21.5 10.8856 21.5 11.8284 20.9142 12.4142C20.3284 13 19.3856 13 17.5 13C15.6144 13 14.6716 13 14.0858 12.4142C13.5 11.8284 13.5 10.8856 13.5 9V7C13.5 5.11438 13.5 4.17157 14.0858 3.58579C14.6716 3 15.6144 3 17.5 3C19.3856 3 20.3284 3 20.9142 3.58579C21.5 4.17157 21.5 5.11438 21.5 7V9Z" stroke="#64A9A0" stroke-width="1.5"/>
<path d="M10 6C10 5.06812 10 4.60218 9.84776 4.23463C9.64477 3.74458 9.25542 3.35523 8.76537 3.15224C8.39782 3 7.93188 3 7 3H5C4.06812 3 3.60218 3 3.23463 3.15224C2.74458 3.35523 2.35523 3.74458 2.15224 4.23463C2 4.60218 2 5.06812 2 6C2 6.93188 2 7.39782 2.15224 7.76537C2.35523 8.25542 2.74458 8.64477 3.23463 8.84776C3.60218 9 4.06812 9 5 9H7C7.93188 9 8.39782 9 8.76537 8.84776C9.25542 8.64477 9.64477 8.25542 9.84776 7.76537C10 7.39782 10 6.93188 10 6Z" stroke="#64A9A0" stroke-width="1.5"/>
<path opacity="0.5" d="M21.5 19C21.5 19.9319 21.5 20.3978 21.3478 20.7654C21.1448 21.2554 20.7554 21.6448 20.2654 21.8478C19.8978 22 19.4319 22 18.5 22H16.5C15.5681 22 15.1022 22 14.7346 21.8478C14.2446 21.6448 13.8552 21.2554 13.6522 20.7654C13.5 20.3978 13.5 19.9319 13.5 19C13.5 18.0681 13.5 17.6022 13.6522 17.2346C13.8552 16.7446 14.2446 16.3552 14.7346 16.1522C15.1022 16 15.5681 16 16.5 16H18.5C19.4319 16 19.8978 16 20.2654 16.1522C20.7554 16.3552 21.1448 16.7446 21.3478 17.2346C21.5 17.6022 21.5 18.0681 21.5 19Z" stroke="#64A9A0" stroke-width="1.5"/>
</g>
</svg>
