<svg width="114" height="114" viewBox="0 0 114 114" fill="none" xmlns="http://www.w3.org/2000/svg">
<path d="M57.0006 76C29.6409 76 24.7941 48.7328 23.9355 27.1057C23.6966 21.0899 23.5772 18.082 25.8369 15.299C28.0965 12.5159 30.801 12.0596 36.21 11.147C41.5493 10.2462 48.5288 9.5 57.0006 9.5C65.4724 9.5 72.4519 10.2462 77.7912 11.147C83.2002 12.0596 85.9047 12.5159 88.1643 15.299C90.424 18.082 90.3046 21.0899 90.0657 27.1057C89.2071 48.7328 84.3603 76 57.0006 76Z" stroke="#1E293B" stroke-width="1.5"/>
<path opacity="0.5" d="M90.25 23.75L94.756 25.252C99.4587 26.8196 101.81 27.6034 103.155 29.4694C104.5 31.3354 104.5 33.814 104.5 38.7711L104.5 39.1156C104.5 43.2041 104.5 45.2484 103.515 46.9209C102.531 48.5935 100.744 49.5863 97.1703 51.5719L83.125 59.375" stroke="#1E293B" stroke-width="1.5"/>
<path opacity="0.5" d="M23.7497 23.75L19.2438 25.252C14.541 26.8196 12.1896 27.6034 10.8447 29.4694C9.4998 31.3354 9.49987 33.814 9.5 38.7711L9.50001 39.1156C9.50012 43.2041 9.50018 45.2484 10.4843 46.9209C11.4685 48.5935 13.2555 49.5863 16.8295 51.5719L30.8747 59.375" stroke="#1E293B" stroke-width="1.5"/>
<path opacity="0.5" d="M57 80.75V90.25" stroke="#1E293B" stroke-width="1.5" stroke-linecap="round"/>
<path d="M73.625 104.5H40.375L41.9863 96.4434C42.4304 94.2232 44.3798 92.625 46.6441 92.625H67.3559C69.6202 92.625 71.5696 94.2232 72.0137 96.4435L73.625 104.5Z" stroke="#1E293B" stroke-width="1.5" stroke-linecap="round" stroke-linejoin="round"/>
<path opacity="0.5" d="M85.5 104.5H28.5" stroke="#1E293B" stroke-width="1.5" stroke-linecap="round"/>
</svg>
